<?xml version="1.0" ?><svg viewBox="0 0 64 64" xmlns="http://www.w3.org/2000/svg"><g id="Flat"><g id="Color"><ellipse cx="32" cy="53.5" fill="#fccd1d" rx="29" ry="7.5"/><ellipse cx="32" cy="53.5" fill="#f9a215" rx="20" ry="3.5"/><path d="M54,25A22,22,0,1,0,22.86,45l7.82,7.84a2,2,0,0,0,2.64,0L41.14,45A22,22,0,0,0,54,25Z" fill="#dd051d"/><circle cx="32" cy="25" fill="#fff" r="18"/><path d="M20,27.23c.2-.88,1.61-1.61,3.81-1.24l1,.16.33-2-1-.17c-3.08-.51-5.58.63-6.08,2.77S19.3,32,25.71,34l4.63,1.42.58-1.92L26.29,32C21.23,30.52,19.77,28.33,20,27.23Z" fill="#bb7a10"/><path d="M31.59,10.68a1,1,0,0,0-1.14,1.64c.37.25.6.51.62.68s-.43.9-.81,1.38A3.89,3.89,0,0,0,29,17.3a3,3,0,0,0,1.44,2,1,1,0,0,0,.57.18,1,1,0,0,0,.58-1.82c-.52-.36-.6-.59-.61-.67,0-.31.43-.9.82-1.38a3.92,3.92,0,0,0,1.23-2.92A3,3,0,0,0,31.59,10.68Z" fill="#e6e7e8"/><path d="M35.93,17c0-.31.43-.9.82-1.38A3.92,3.92,0,0,0,38,12.71a3,3,0,0,0-1.46-2,1,1,0,0,0-1.14,1.64c.37.25.6.51.62.68s-.43.9-.81,1.38A3.89,3.89,0,0,0,34,17.3a3,3,0,0,0,1.44,2,1,1,0,0,0,.57.18,1,1,0,0,0,.58-1.82C36,17.32,35.94,17.09,35.93,17Z" fill="#e6e7e8"/><path d="M23.5,22h21a0,0,0,0,1,0,0v4.5A10.5,10.5,0,0,1,34,37h0A10.5,10.5,0,0,1,23.5,26.5V22a0,0,0,0,1,0,0Z" fill="#bb7a10"/></g></g></svg>