<?xml version="1.0" ?><svg viewBox="0 0 64 64" xmlns="http://www.w3.org/2000/svg"><g id="Flat"><g id="Color"><ellipse cx="32" cy="53.5" fill="#fccd1d" rx="29" ry="7.5"/><ellipse cx="32" cy="53.5" fill="#f9a215" rx="20" ry="3.5"/><path d="M54,25A22,22,0,1,0,22.86,45l7.82,7.84a2,2,0,0,0,2.64,0L41.14,45A22,22,0,0,0,54,25Z" fill="#dd051d"/><circle cx="32" cy="25" fill="#fff" r="18"/><path d="M40,22H35V17a3,3,0,0,0-3-3h0a3,3,0,0,0-3,3v5H24a3,3,0,0,0-3,3h0a3,3,0,0,0,3,3h5v5a3,3,0,0,0,3,3h0a3,3,0,0,0,3-3V28h5a3,3,0,0,0,3-3h0A3,3,0,0,0,40,22Z" fill="#dd051d"/></g></g></svg>