<?xml version="1.0" ?><svg viewBox="0 0 64 64" xmlns="http://www.w3.org/2000/svg"><g id="Flat"><g id="Color"><ellipse cx="32" cy="53.5" fill="#fccd1d" rx="29" ry="7.5"/><ellipse cx="32" cy="53.5" fill="#f9a215" rx="20" ry="3.5"/><path d="M54,25A22,22,0,1,0,22.86,45l7.82,7.84a2,2,0,0,0,2.64,0L41.14,45A22,22,0,0,0,54,25Z" fill="#dd051d"/><circle cx="32" cy="25" fill="#fff" r="18"/><polygon fill="#fccd1d" points="41 35 38 19 26 19 23 35 32.16 35 41 35"/><polygon fill="#f9a215" points="41 35 23 35 24.13 29 39.87 29 41 35"/><path d="M32,12a4,4,0,0,0-4,4v6a1,1,0,0,0,2,0V16a2,2,0,0,1,4,0v6a1,1,0,0,0,2,0V16A4,4,0,0,0,32,12Z" fill="#212529"/></g></g></svg>