<svg width="22" height="21" viewBox="0 0 22 21" fill="none" xmlns="http://www.w3.org/2000/svg">
<path d="M6.75 20.63C6.47 20.63 6.18 20.56 5.92 20.42C5.35 20.12 5 19.52 5 18.88V17.46C1.98 17.15 0 14.93 0 11.75V5.75C0 2.31 2.31 0 5.75 0H15.75C19.19 0 21.5 2.31 21.5 5.75V11.75C21.5 15.19 19.19 17.5 15.75 17.5H11.98L7.72 20.34C7.43 20.53 7.09 20.63 6.75 20.63ZM5.75 1.49C3.17 1.49 1.5 3.16 1.5 5.74V11.74C1.5 14.32 3.17 15.99 5.75 15.99C6.16 15.99 6.5 16.33 6.5 16.74V18.87C6.5 19 6.58 19.06 6.63 19.09C6.68 19.12 6.78 19.15 6.89 19.08L11.34 16.12C11.46 16.04 11.61 15.99 11.76 15.99H15.76C18.34 15.99 20.01 14.32 20.01 11.74V5.74C20.01 3.16 18.34 1.49 15.76 1.49H5.75Z" fill="white"/>
<path d="M10.75 10.4192C10.34 10.4192 10 10.0792 10 9.66919V9.45919C10 8.29919 10.85 7.72919 11.17 7.50919C11.54 7.25919 11.66 7.08919 11.66 6.82919C11.66 6.32919 11.25 5.91919 10.75 5.91919C10.25 5.91919 9.84 6.32919 9.84 6.82919C9.84 7.23919 9.5 7.57919 9.09 7.57919C8.68 7.57919 8.34 7.23919 8.34 6.82919C8.34 5.49919 9.42 4.41919 10.75 4.41919C12.08 4.41919 13.16 5.49919 13.16 6.82919C13.16 7.96919 12.32 8.53919 12.01 8.74919C11.62 9.00919 11.5 9.17919 11.5 9.45919V9.66919C11.5 10.0892 11.16 10.4192 10.75 10.4192ZM10.75 12.9112C10.6516 12.9113 10.5542 12.8921 10.4633 12.8546C10.3724 12.817 10.2897 12.762 10.2201 12.6925C10.1504 12.6231 10.0952 12.5406 10.0574 12.4497C10.0196 12.3589 10.0001 12.2615 10 12.1632C9.99986 12.0648 10.0191 11.9674 10.0566 11.8765C10.0941 11.7856 10.1492 11.7029 10.2187 11.6333C10.2881 11.5636 10.3706 11.5083 10.4614 11.4706C10.5523 11.4328 10.6496 11.4133 10.748 11.4132C10.9466 11.4129 11.1373 11.4916 11.2779 11.6319C11.4186 11.7721 11.4977 11.9625 11.498 12.1612C11.4983 12.3598 11.4196 12.5505 11.2793 12.6911C11.139 12.8318 10.9486 12.9109 10.75 12.9112Z" fill="white"/>
</svg>
