<svg width="91" height="90" viewBox="0 0 91 90" fill="none" xmlns="http://www.w3.org/2000/svg">
<circle cx="45.3364" cy="45" r="45" fill="#540000"/>
<path d="M45.3344 58.8356C43.933 58.8356 42.5444 58.4242 41.4516 57.6142L35.923 53.487C34.4573 52.3942 33.313 50.1056 33.313 48.2927V38.727C33.313 36.747 34.7658 34.6385 36.6301 33.9442L43.0458 31.5399C44.3187 31.0642 46.3244 31.0642 47.5973 31.5399L54.013 33.9442C55.8773 34.6385 57.3301 36.747 57.3301 38.727V48.2799C57.3301 50.1056 56.1858 52.3813 54.7201 53.4742L49.1916 57.6013C48.1244 58.4242 46.7358 58.8356 45.3344 58.8356V58.8356ZM43.7273 33.3527L37.3116 35.757C36.2187 36.1685 35.2544 37.557 35.2544 38.7399V48.2927C35.2544 49.5142 36.1158 51.2242 37.0801 51.9442L42.6087 56.0713C44.0873 57.177 46.5816 57.177 48.073 56.0713L53.6016 51.9442C54.5787 51.2113 55.4273 49.5142 55.4273 48.2927V38.727C55.4273 37.557 54.463 36.1685 53.3701 35.7442L46.9544 33.3399C46.0801 33.0313 44.5887 33.0313 43.7273 33.3527V33.3527Z" fill="white"/>
<path d="M43.6114 47.8685C43.3671 47.8685 43.1228 47.7785 42.93 47.5856L40.86 45.5156C40.6806 45.3342 40.5801 45.0893 40.5801 44.8342C40.5801 44.5791 40.6806 44.3342 40.86 44.1528C41.2328 43.7799 41.85 43.7799 42.2228 44.1528L43.6114 45.5413L48.4586 40.6942C48.8314 40.3213 49.4486 40.3213 49.8214 40.6942C50.1943 41.0671 50.1943 41.6842 49.8214 42.0571L44.2928 47.5856C44.1 47.7785 43.8557 47.8685 43.6114 47.8685V47.8685Z" fill="white"/>
</svg>
