<svg width="91" height="90" viewBox="0 0 91 90" fill="none" xmlns="http://www.w3.org/2000/svg">
<circle cx="45.3364" cy="45" r="45" fill="#540000"/>
<path d="M48.7611 50.6556H40.5955C38.1824 50.4849 37.1099 48.6446 37.1099 46.9993C37.1099 45.6221 37.8655 44.1109 39.4864 43.5502C39.1208 41.7221 39.5717 40.0159 40.7783 38.7484C42.2286 37.2249 44.5564 36.6277 46.5552 37.2371C48.3345 37.7856 49.6142 39.2115 50.1139 41.1981C51.6374 41.6246 52.8439 42.819 53.3436 44.4399C53.9042 46.2924 53.3924 48.1937 52.003 49.4002C51.1255 50.2046 49.9677 50.6556 48.7611 50.6556V50.6556ZM40.6321 45.1712C39.3889 45.2809 38.938 46.2193 38.938 46.9993C38.938 47.7915 39.3889 48.7421 40.6564 48.8274H48.7245C49.5167 48.8274 50.2114 48.5593 50.772 48.0352C51.7958 47.1456 51.8567 45.8659 51.5886 44.964C51.3205 44.0621 50.5527 43.0384 49.2242 42.8799C49.0285 42.8558 48.8458 42.7693 48.7031 42.6332C48.5604 42.4971 48.4654 42.3187 48.432 42.1243C48.1639 40.5034 47.2986 39.3943 46.0067 38.9921C44.6783 38.5777 43.0574 39.0043 42.0946 40.0159C41.1439 41.0031 40.9367 42.4046 41.4852 43.9524C41.5675 44.1803 41.556 44.4316 41.4531 44.651C41.3503 44.8703 41.1646 45.0399 40.9367 45.1224C40.8392 45.159 40.6808 45.1834 40.6321 45.1712V45.1712ZM41.6802 57.5391C36.4761 57.5391 32.2349 53.2978 32.2349 48.0937C32.2349 47.5941 32.6492 47.1797 33.1489 47.1797C33.6486 47.1797 34.063 47.5941 34.063 48.0937C34.063 51.7012 36.5736 54.7237 39.9495 55.5159L39.6205 54.9675C39.496 54.759 39.4595 54.5096 39.5189 54.2742C39.5784 54.0388 39.7289 53.8366 39.9374 53.7122C40.1458 53.5877 40.3952 53.5512 40.6306 53.6106C40.8661 53.6701 41.0682 53.8206 41.1927 54.0291L42.4724 56.1619C42.643 56.4422 42.643 56.7956 42.4845 57.0759C42.3139 57.3562 42.0092 57.5391 41.6802 57.5391V57.5391ZM57.5239 41.6953C57.0242 41.6953 56.6099 41.2809 56.6099 40.7812C56.6099 37.1737 54.0992 34.1512 50.7233 33.3591L51.0524 33.9075C51.114 34.0107 51.1547 34.1251 51.1721 34.244C51.1895 34.363 51.1833 34.4842 51.1539 34.6008C51.1245 34.7173 51.0724 34.827 51.0006 34.9234C50.9288 35.0198 50.8387 35.1012 50.7355 35.1628C50.6323 35.2244 50.5179 35.2651 50.3989 35.2825C50.28 35.3 50.1588 35.2938 50.0422 35.2644C49.9256 35.2349 49.816 35.1828 49.7196 35.111C49.6231 35.0393 49.5418 34.9492 49.4802 34.8459L48.2005 32.7131C48.1178 32.5755 48.0731 32.4183 48.071 32.2577C48.0688 32.0972 48.1093 31.9389 48.1883 31.7991C48.3467 31.5066 48.6514 31.3359 48.9805 31.3359C54.1845 31.3359 58.4258 35.5772 58.4258 40.7812C58.4274 40.9007 58.4053 41.0193 58.3607 41.1301C58.3161 41.241 58.2499 41.3418 58.166 41.4269C58.0821 41.5119 57.9821 41.5794 57.8719 41.6255C57.7617 41.6716 57.6434 41.6953 57.5239 41.6953V41.6953Z" fill="white"/>
</svg>
