<svg width="90" height="90" viewBox="0 0 90 90" fill="none" xmlns="http://www.w3.org/2000/svg">
<circle cx="45" cy="45" r="45" fill="#540000"/>
<path d="M56.5711 37.2602C52.2897 36.8359 47.9825 36.6174 43.6882 36.6174C41.1425 36.6174 38.5968 36.7459 36.0511 37.0031L33.4282 37.2602M40.4997 35.9616L40.7825 34.2774C40.9882 33.0559 41.1425 32.1431 43.3154 32.1431H46.6839C48.8568 32.1431 49.0239 33.1074 49.2168 34.2902L49.4997 35.9616M53.8068 41.3231L52.9711 54.2702C52.8297 56.2888 52.7139 57.8574 49.1268 57.8574H40.8725C37.2854 57.8574 37.1697 56.2888 37.0282 54.2702L36.1925 41.3231M42.8525 50.7859H47.1339M41.7854 45.6431H48.2139" stroke="white" stroke-width="1.5" stroke-linecap="round" stroke-linejoin="round"/>
</svg>
