<svg width="90" height="90" viewBox="0 0 90 90" fill="none" xmlns="http://www.w3.org/2000/svg">
<circle cx="45" cy="45" r="45" fill="#540000"/>
<path d="M49.2656 53.8828H40.7344C37.395 53.8828 35.5547 52.0425 35.5547 48.7031V40.1719C35.5547 36.8325 37.395 34.9922 40.7344 34.9922H49.2656C52.605 34.9922 54.4453 36.8325 54.4453 40.1719V48.7031C54.4453 52.0425 52.605 53.8828 49.2656 53.8828ZM40.7344 36.8203C38.3822 36.8203 37.3828 37.8197 37.3828 40.1719V48.7031C37.3828 51.0553 38.3822 52.0547 40.7344 52.0547H49.2656C51.6178 52.0547 52.6172 51.0553 52.6172 48.7031V40.1719C52.6172 37.8197 51.6178 36.8203 49.2656 36.8203H40.7344ZM49.875 33.1641H40.125C39.6253 33.1641 39.2109 32.7497 39.2109 32.25C39.2109 31.7503 39.6253 31.3359 40.125 31.3359H49.875C50.3747 31.3359 50.7891 31.7503 50.7891 32.25C50.7891 32.7497 50.3747 33.1641 49.875 33.1641ZM49.875 57.5391H40.125C39.6253 57.5391 39.2109 57.1247 39.2109 56.625C39.2109 56.1253 39.6253 55.7109 40.125 55.7109H49.875C50.3747 55.7109 50.7891 56.1253 50.7891 56.625C50.7891 57.1247 50.3747 57.5391 49.875 57.5391Z" fill="white"/>
<path d="M48.0469 45.9609H44.3906C43.8909 45.9609 43.4766 45.5466 43.4766 45.0469V41.3906C43.4766 40.8909 43.8909 40.4766 44.3906 40.4766C44.8903 40.4766 45.3047 40.8909 45.3047 41.3906V44.1328H48.0469C48.5466 44.1328 48.9609 44.5472 48.9609 45.0469C48.9609 45.5466 48.5466 45.9609 48.0469 45.9609Z" fill="white"/>
</svg>
