<svg width="24" height="24" viewBox="0 0 24 24" fill="none" xmlns="http://www.w3.org/2000/svg">
<path d="M11.9879 22.7609C10.9087 22.7609 9.83938 22.4409 8.9978 21.8109L4.74037 18.6009C3.61166 17.7509 2.73047 15.9709 2.73047 14.5609V7.12092C2.73047 5.58092 3.84928 3.94092 5.28492 3.40092L10.2255 1.53092C11.2057 1.16092 12.7503 1.16092 13.7305 1.53092L18.6711 3.40092C20.1067 3.94092 21.2255 5.58092 21.2255 7.12092V14.5509C21.2255 15.9709 20.3443 17.7409 19.2156 18.5909L14.9582 21.8009C14.1364 22.4409 13.0671 22.7609 11.9879 22.7609ZM10.7503 2.94092L5.80968 4.81092C4.96809 5.13092 4.22552 6.21092 4.22552 7.13092V14.5609C4.22552 15.5109 4.88889 16.8409 5.63146 17.4009L9.88889 20.6109C11.0275 21.4709 12.9483 21.4709 14.0968 20.6109L18.3542 17.4009C19.1067 16.8309 19.7602 15.5109 19.7602 14.5609V7.12092C19.7602 6.21092 19.0176 5.13092 18.176 4.80092L13.2354 2.93092C12.5622 2.69092 11.4136 2.69092 10.7503 2.94092Z" fill="white"/>
<path d="M10.6615 14.2311C10.4734 14.2311 10.2853 14.1611 10.1368 14.0111L8.54269 12.4011C8.40459 12.26 8.32715 12.0695 8.32715 11.8711C8.32715 11.6727 8.40459 11.4822 8.54269 11.3411C8.82982 11.0511 9.30507 11.0511 9.5922 11.3411L10.6615 12.4211L14.3942 8.65109C14.6813 8.36109 15.1566 8.36109 15.4437 8.65109C15.7308 8.94109 15.7308 9.42109 15.4437 9.71109L11.1863 14.0111C11.0377 14.1611 10.8496 14.2311 10.6615 14.2311Z" fill="white"/>
</svg>
