<svg width="24" height="23" viewBox="0 0 24 23" fill="none" xmlns="http://www.w3.org/2000/svg">
<path d="M15.3179 18.9088H8.68245C6.08516 18.9088 4.65381 17.4774 4.65381 14.8801V8.24471C4.65381 5.64742 6.08516 4.21606 8.68245 4.21606H15.3179C17.9152 4.21606 19.3465 5.64742 19.3465 8.24471V14.8801C19.3465 17.4774 17.9152 18.9088 15.3179 18.9088ZM8.68245 5.63794C6.85298 5.63794 6.07568 6.41523 6.07568 8.24471V14.8801C6.07568 16.7096 6.85298 17.4869 8.68245 17.4869H15.3179C17.1473 17.4869 17.9246 16.7096 17.9246 14.8801V8.24471C17.9246 6.41523 17.1473 5.63794 15.3179 5.63794H8.68245ZM15.7918 2.79419H8.2085C7.81985 2.79419 7.49756 2.4719 7.49756 2.08325C7.49756 1.69461 7.81985 1.37231 8.2085 1.37231H15.7918C16.1805 1.37231 16.5028 1.69461 16.5028 2.08325C16.5028 2.4719 16.1805 2.79419 15.7918 2.79419ZM15.7918 21.7525H8.2085C7.81985 21.7525 7.49756 21.4302 7.49756 21.0416C7.49756 20.6529 7.81985 20.3306 8.2085 20.3306H15.7918C16.1805 20.3306 16.5028 20.6529 16.5028 21.0416C16.5028 21.4302 16.1805 21.7525 15.7918 21.7525Z" fill="white"/>
<path d="M14.3696 12.7473H11.5259C11.1372 12.7473 10.8149 12.425 10.8149 12.0364V9.19263C10.8149 8.80398 11.1372 8.48169 11.5259 8.48169C11.9145 8.48169 12.2368 8.80398 12.2368 9.19263V11.3254H14.3696C14.7583 11.3254 15.0806 11.6477 15.0806 12.0364C15.0806 12.425 14.7583 12.7473 14.3696 12.7473Z" fill="white"/>
</svg>
