<svg width="24" height="23" viewBox="0 0 24 23" fill="none" xmlns="http://www.w3.org/2000/svg">
<path d="M15.0002 16.3987H8.64919C6.77232 16.266 5.93815 14.8346 5.93815 13.5549C5.93815 12.4838 6.52586 11.3084 7.78659 10.8723C7.50221 9.45046 7.85294 8.12338 8.79138 7.13754C9.9194 5.95265 11.7299 5.48817 13.2845 5.96213C14.6685 6.38869 15.6638 7.49775 16.0524 9.04286C17.2373 9.37463 18.1758 10.3036 18.5644 11.5643C19.0004 13.0051 18.6023 14.4839 17.5217 15.4223C16.8392 16.048 15.9387 16.3987 15.0002 16.3987ZM8.67763 12.1331C7.71075 12.2184 7.36003 12.9483 7.36003 13.5549C7.36003 14.1711 7.71075 14.9105 8.69659 14.9768H14.9718C15.5879 14.9768 16.1283 14.7683 16.5643 14.3607C17.3605 13.6687 17.4079 12.6734 17.1994 11.9719C16.9909 11.2705 16.3937 10.4742 15.3604 10.351C15.2082 10.3322 15.0661 10.2649 14.9551 10.1591C14.8442 10.0532 14.7702 9.91443 14.7443 9.76327C14.5358 8.50254 13.8627 7.63994 12.8579 7.32713C11.8247 7.00484 10.564 7.33661 9.81513 8.12338C9.07575 8.89119 8.91461 9.98129 9.34117 11.1851C9.4052 11.3624 9.39624 11.5578 9.31625 11.7284C9.23626 11.8991 9.0918 12.031 8.91461 12.0951C8.83878 12.1236 8.71555 12.1425 8.67763 12.1331ZM9.49284 21.7525C5.44523 21.7525 2.14648 18.4538 2.14648 14.4062C2.14648 14.0175 2.46878 13.6952 2.85742 13.6952C3.24607 13.6952 3.56836 14.0175 3.56836 14.4062C3.56836 17.212 5.52107 19.5628 8.1468 20.179L7.89086 19.7524C7.79407 19.5903 7.76566 19.3963 7.81188 19.2132C7.8581 19.0301 7.97516 18.8729 8.13732 18.7761C8.29947 18.6793 8.49343 18.6509 8.67654 18.6971C8.85964 18.7433 9.01688 18.8604 9.11367 19.0225L10.109 20.6814C10.2417 20.8994 10.2417 21.1743 10.1185 21.3923C9.98575 21.6103 9.74878 21.7525 9.49284 21.7525ZM21.8158 9.42961C21.4271 9.42961 21.1048 9.10731 21.1048 8.71867C21.1048 5.91284 19.1521 3.562 16.5264 2.94586L16.7823 3.37242C16.8302 3.45271 16.8619 3.54165 16.8754 3.63417C16.889 3.72669 16.8842 3.82098 16.8613 3.91164C16.8384 4.0023 16.7979 4.08757 16.7421 4.16257C16.6862 4.23758 16.6161 4.30085 16.5359 4.34877C16.4556 4.3967 16.3666 4.42834 16.2741 4.44189C16.1816 4.45544 16.0873 4.45064 15.9966 4.42775C15.906 4.40487 15.8207 4.36435 15.7457 4.30851C15.6707 4.25267 15.6074 4.18261 15.5595 4.10231L14.5642 2.44346C14.4999 2.33638 14.4651 2.21417 14.4635 2.08927C14.4618 1.96438 14.4933 1.84128 14.5547 1.73252C14.6779 1.50502 14.9149 1.37231 15.1709 1.37231C19.2185 1.37231 22.5172 4.67106 22.5172 8.71867C22.5185 8.81158 22.5013 8.90381 22.4666 8.99002C22.4319 9.07622 22.3804 9.15467 22.3151 9.22081C22.2499 9.28696 22.1721 9.33948 22.0864 9.37532C22.0007 9.41116 21.9087 9.42961 21.8158 9.42961Z" fill="white"/>
</svg>
