<?xml version="1.0" ?><svg viewBox="0 0 64 64" xmlns="http://www.w3.org/2000/svg"><g id="Flat"><g id="Color"><ellipse cx="32" cy="53.5" fill="#fccd1d" rx="29" ry="7.5"/><ellipse cx="32" cy="53.5" fill="#f9a215" rx="20" ry="3.5"/><path d="M54,25A22,22,0,1,0,22.86,45l7.82,7.84a2,2,0,0,0,2.64,0L41.14,45A22,22,0,0,0,54,25Z" fill="#dd051d"/><circle cx="32" cy="25" fill="#fff" r="18"/><path d="M41.64,18.23a1,1,0,1,0-1.28,1.54A6.55,6.55,0,0,1,43,25v6a1,1,0,0,1-2,0V26.75A4.77,4.77,0,0,0,36,22H33.91a1,1,0,0,0,0,2H36a2.79,2.79,0,0,1,3,2.75V31a3,3,0,0,0,6,0V25A8.57,8.57,0,0,0,41.64,18.23Z" fill="#212529"/><rect fill="#fccd1d" height="23" rx="1" width="12" x="24" y="13"/><rect fill="#e6e7e8" height="6" width="12" x="24" y="17"/></g></g></svg>