<?xml version="1.0" ?><svg viewBox="0 0 64 64" xmlns="http://www.w3.org/2000/svg"><g id="Flat"><g id="Color"><ellipse cx="32" cy="53.5" fill="#fccd1d" rx="29" ry="7.5"/><ellipse cx="32" cy="53.5" fill="#f9a215" rx="20" ry="3.5"/><path d="M54,25A22,22,0,1,0,22.86,45l7.82,7.84a2,2,0,0,0,2.64,0L41.14,45A22,22,0,0,0,54,25Z" fill="#dd051d"/><circle cx="32" cy="25" fill="#fff" r="18"/><polygon fill="#bb7a10" points="21 26 21 34 25 34 25 31 39 31 39 34 43 34 43 26 21 26"/><path d="M24,16H40a2,2,0,0,1,2,2v8a0,0,0,0,1,0,0H22a0,0,0,0,1,0,0V18A2,2,0,0,1,24,16Z" fill="#fccd1d"/><path d="M26.85,21h4.31a.85.85,0,0,1,.85.85V26a0,0,0,0,1,0,0H26a0,0,0,0,1,0,0V21.85A.85.85,0,0,1,26.85,21Z" fill="#e6e7e8"/><path d="M32.85,21h4.31a.85.85,0,0,1,.85.85V26a0,0,0,0,1,0,0H32a0,0,0,0,1,0,0V21.85A.85.85,0,0,1,32.85,21Z" fill="#e6e7e8"/></g></g></svg>