<?xml version="1.0" ?><svg viewBox="0 0 64 64" xmlns="http://www.w3.org/2000/svg"><g id="Flat"><g id="Color"><ellipse cx="32" cy="53.5" fill="#fccd1d" rx="29" ry="7.5"/><ellipse cx="32" cy="53.5" fill="#f9a215" rx="20" ry="3.5"/><path d="M54,25A22,22,0,1,0,22.86,45l7.82,7.84a2,2,0,0,0,2.64,0L41.14,45A22,22,0,0,0,54,25Z" fill="#dd051d"/><circle cx="32" cy="25" fill="#fff" r="18"/><path d="M42.51,23.55A6.51,6.51,0,0,0,44.12,17l-3,3-3.54-.71-.71-3.53,3-3a6.5,6.5,0,0,0-6.55,1.6c-1.47,1.47-1.65,4.45-1.42,6.37l-4.83,4.83A19.37,19.37,0,0,1,22,29.2a4,4,0,0,0,5.65,5.66,19.6,19.6,0,0,1,3.65-5.06L36.15,25C38.06,25.19,41,25,42.51,23.55Z" fill="#212529"/><circle cx="24.83" cy="32.03" fill="#fff" r="1"/></g></g></svg>