<?xml version="1.0" ?><svg viewBox="0 0 64 64" xmlns="http://www.w3.org/2000/svg"><g id="Flat"><g id="Color"><ellipse cx="32" cy="53.5" fill="#fccd1d" rx="29" ry="7.5"/><ellipse cx="32" cy="53.5" fill="#f9a215" rx="20" ry="3.5"/><path d="M54,25A22,22,0,1,0,22.86,45l7.82,7.84a2,2,0,0,0,2.64,0L41.14,45A22,22,0,0,0,54,25Z" fill="#dd051d"/><circle cx="32" cy="25" fill="#fff" r="18"/><path d="M44,20.3a5,5,0,0,0-3.74-4.15,5,5,0,0,0-3.27.3,5,5,0,0,0-9.88,0,5,5,0,0,0-3.27-.3A5,5,0,0,0,24,25.9V34a2,2,0,0,0,2,2H38a2,2,0,0,0,2-2V25.9A5,5,0,0,0,44,20.3Z" fill="#e6e7e8"/><path d="M40,31v3a2,2,0,0,1-2,2H26a2,2,0,0,1-2-2V31Z" fill="#d1d3d4"/><path d="M27.47,15.53a1,1,0,1,0-.82,1.82A4,4,0,0,1,29,21a1,1,0,0,0,2,0A6,6,0,0,0,27.47,15.53Z" fill="#e6e7e8"/></g></g></svg>