<?xml version="1.0" ?><svg viewBox="0 0 64 64" xmlns="http://www.w3.org/2000/svg"><g id="Flat"><g id="Color"><ellipse cx="32" cy="53.5" fill="#fccd1d" rx="29" ry="7.5"/><ellipse cx="32" cy="53.5" fill="#f9a215" rx="20" ry="3.5"/><path d="M54,25A22,22,0,1,0,22.86,45l7.82,7.84a2,2,0,0,0,2.64,0L41.14,45A22,22,0,0,0,54,25Z" fill="#dd051d"/><circle cx="32" cy="25" fill="#fff" r="18"/><path d="M38.09,17.9l-2.64-3a1.05,1.05,0,0,0-.78-.35H29.33a1.05,1.05,0,0,0-.78.35l-2.64,3a1.05,1.05,0,0,1-.78.35H21.55A1,1,0,0,0,20.5,19.3V32.36a1,1,0,0,0,1.05,1h20.9a1,1,0,0,0,1-1V19.3a1,1,0,0,0-1-1.05H38.87A1.05,1.05,0,0,1,38.09,17.9Z" fill="#212529"/><circle cx="32" cy="25.05" fill="#fff" r="3.66"/></g></g></svg>